<svg width="720" height="240" viewBox="0 0 720 240" fill="none" xmlns="http://www.w3.org/2000/svg">
<path d="M137.056 145.72C148.334 148.096 176.172 147.378 176.825 129.129C176.825 121.784 167.397 114.98 158.415 113.025C148.827 110.598 138.786 110.598 129.199 113.025C122.339 115.661 120.177 108.92 126.441 106.643C138.307 102.309 184.552 101.382 186.744 129.146C184.832 156.552 144.455 154.588 135.361 152.777C131.761 152.062 129.023 150.407 129.023 145.821V122.99C129.012 122.452 129.109 121.918 129.308 121.419C129.507 120.92 129.803 120.465 130.181 120.082C130.558 119.7 131.008 119.396 131.505 119.19C132.001 118.984 132.534 118.879 133.071 118.882C133.609 118.885 134.14 118.996 134.634 119.208C135.128 119.419 135.575 119.728 135.948 120.115C136.321 120.502 136.612 120.96 136.806 121.461C136.999 121.963 137.09 122.498 137.073 123.035L137.056 145.72Z" fill="#D90010"/>
<path d="M223.91 113.523C214.914 113.523 199.751 140.982 195.304 150.817C195.039 151.389 194.662 151.902 194.196 152.325C193.73 152.748 193.184 153.074 192.589 153.283C191.995 153.491 191.365 153.578 190.736 153.539C190.108 153.5 189.493 153.335 188.929 153.054C188.366 152.773 187.864 152.382 187.454 151.904C187.044 151.426 186.734 150.871 186.543 150.271C186.351 149.671 186.282 149.038 186.339 148.411C186.396 147.784 186.579 147.175 186.876 146.619C191.662 136.03 209.713 104.064 223.834 104.347C237.96 104.064 256.008 136.027 260.791 146.619C261.101 147.176 261.294 147.789 261.359 148.422C261.425 149.056 261.361 149.696 261.173 150.304C260.984 150.912 260.674 151.475 260.262 151.96C259.85 152.445 259.343 152.842 258.773 153.126C258.203 153.41 257.582 153.575 256.946 153.612C256.311 153.649 255.674 153.557 255.075 153.341C254.476 153.125 253.927 152.791 253.461 152.357C252.995 151.923 252.622 151.399 252.364 150.817C247.911 140.98 232.903 113.523 223.91 113.523Z" fill="#D90010"/>
<path d="M286.878 144.505C295.873 144.505 311.034 117.043 315.481 107.211C315.743 106.635 316.119 106.118 316.585 105.691C317.052 105.263 317.599 104.934 318.196 104.723C318.792 104.511 319.425 104.422 320.056 104.461C320.688 104.499 321.305 104.665 321.871 104.947C322.437 105.229 322.941 105.622 323.352 106.103C323.763 106.584 324.073 107.143 324.264 107.746C324.454 108.35 324.521 108.985 324.461 109.615C324.4 110.245 324.213 110.856 323.912 111.412C319.126 122.002 301.08 153.967 286.954 153.682C272.827 153.964 254.779 122.002 249.993 111.412C249.691 110.856 249.505 110.245 249.444 109.615C249.384 108.985 249.451 108.35 249.641 107.746C249.832 107.143 250.141 106.584 250.552 106.103C250.963 105.622 251.467 105.229 252.033 104.947C252.6 104.665 253.217 104.499 253.848 104.461C254.48 104.422 255.113 104.511 255.709 104.723C256.306 104.934 256.853 105.263 257.319 105.691C257.786 106.118 258.161 106.635 258.424 107.211C262.868 117.043 277.879 144.505 286.878 144.505Z" fill="#D90010"/>
<path d="M339.084 109.075V149.093C339.069 149.686 338.937 150.271 338.696 150.814C338.455 151.357 338.109 151.847 337.679 152.256C337.248 152.665 336.741 152.985 336.187 153.198C335.633 153.412 335.042 153.514 334.448 153.499C333.855 153.484 333.27 153.352 332.727 153.111C332.185 152.87 331.695 152.524 331.286 152.094C330.877 151.664 330.556 151.157 330.343 150.602C330.129 150.048 330.028 149.458 330.043 148.864V108.965C330.057 107.766 330.548 106.622 331.406 105.784C331.831 105.37 332.333 105.043 332.884 104.822C333.435 104.602 334.024 104.492 334.618 104.499C335.212 104.507 335.798 104.631 336.344 104.865C336.889 105.098 337.384 105.437 337.799 105.862C338.213 106.287 338.54 106.79 338.761 107.341C338.981 107.892 339.091 108.481 339.084 109.075Z" fill="#D90010"/>
<path d="M382.295 144.506C391.294 144.506 406.454 117.044 410.901 107.212C411.171 106.648 411.551 106.143 412.018 105.727C412.484 105.311 413.029 104.993 413.62 104.789C414.211 104.586 414.837 104.503 415.461 104.544C416.085 104.585 416.694 104.75 417.253 105.029C417.812 105.308 418.311 105.695 418.719 106.169C419.127 106.643 419.437 107.193 419.63 107.787C419.823 108.382 419.896 109.009 419.844 109.632C419.793 110.255 419.618 110.861 419.33 111.416C414.541 122.005 396.495 153.968 382.372 153.686C368.245 153.968 350.197 122.005 345.411 111.416C345.109 110.86 344.922 110.249 344.862 109.619C344.801 108.989 344.869 108.354 345.059 107.75C345.25 107.147 345.559 106.588 345.97 106.107C346.381 105.626 346.885 105.233 347.451 104.951C348.018 104.669 348.635 104.503 349.266 104.465C349.898 104.426 350.531 104.515 351.127 104.727C351.723 104.938 352.271 105.267 352.738 105.694C353.204 106.122 353.579 106.639 353.841 107.215C358.291 117.044 373.302 144.506 382.295 144.506Z" fill="#D90010"/>
<path d="M451.763 133.123C454.41 138.714 461.974 143.28 469.28 144.873C478.866 147.302 488.907 147.302 498.494 144.873C505.159 142.706 507.506 149.159 501.194 151.281C488.819 155.446 443.408 156.932 440.733 129.128C442.208 102.629 478.493 103.313 492.334 105.113C499.115 106 497.722 113.162 490.639 111.693C481.344 110.45 456.171 108.986 451.266 125.673L477.095 125.692C481.124 125.692 481.124 133.123 477.095 133.123H451.763Z" fill="#D90010"/>
<path d="M595.655 145.72C606.934 148.096 634.772 147.378 635.419 129.129C635.419 121.784 625.991 114.98 617.006 113.025C607.419 110.598 597.378 110.598 587.79 113.025C580.931 115.661 578.769 108.92 585.033 106.643C596.916 102.309 643.146 101.382 645.336 129.146C643.42 156.552 603.048 154.588 593.953 152.777C590.353 152.062 587.615 150.407 587.615 145.821V122.99C587.621 121.922 588.052 120.9 588.811 120.149C589.571 119.398 590.597 118.979 591.666 118.985C592.734 118.991 593.755 119.421 594.506 120.181C595.257 120.94 595.676 121.967 595.67 123.035L595.655 145.72Z" fill="#D90010"/>
<path d="M682.528 113.523C673.535 113.523 658.369 140.982 653.925 150.817C653.661 151.391 653.285 151.905 652.818 152.33C652.352 152.755 651.805 153.082 651.21 153.292C650.615 153.502 649.984 153.59 649.354 153.551C648.724 153.512 648.108 153.348 647.543 153.066C646.978 152.785 646.476 152.393 646.065 151.914C645.655 151.435 645.345 150.878 645.154 150.277C644.962 149.676 644.893 149.042 644.951 148.414C645.009 147.785 645.193 147.175 645.492 146.619C650.278 136.03 668.323 104.064 682.45 104.347C696.576 104.064 714.625 136.027 719.408 146.619C719.717 147.176 719.909 147.789 719.975 148.422C720.04 149.056 719.977 149.696 719.789 150.304C719.6 150.912 719.29 151.475 718.878 151.96C718.466 152.445 717.959 152.842 717.389 153.126C716.82 153.41 716.197 153.575 715.562 153.612C714.926 153.649 714.29 153.557 713.691 153.341C713.092 153.125 712.543 152.791 712.077 152.357C711.611 151.923 711.237 151.399 710.979 150.817C706.535 140.98 691.524 113.523 682.528 113.523Z" fill="#D90010"/>
<path d="M434.476 109.076V149.094C434.461 149.688 434.33 150.273 434.089 150.815C433.847 151.358 433.501 151.848 433.071 152.257C432.641 152.666 432.134 152.987 431.58 153.2C431.026 153.413 430.435 153.515 429.842 153.5C429.248 153.485 428.663 153.353 428.12 153.112C427.577 152.871 427.087 152.526 426.678 152.095C426.269 151.665 425.949 151.158 425.735 150.604C425.522 150.05 425.42 149.459 425.435 148.865V108.963C425.443 108.37 425.567 107.783 425.801 107.238C426.035 106.692 426.374 106.198 426.799 105.783C427.224 105.369 427.727 105.042 428.278 104.822C428.829 104.602 429.419 104.492 430.013 104.499C430.606 104.507 431.192 104.631 431.738 104.865C432.283 105.099 432.778 105.438 433.192 105.863C433.607 106.288 433.934 106.791 434.154 107.342C434.374 107.893 434.484 108.483 434.476 109.076Z" fill="#D90010"/>
<path d="M543.173 137.168C537.584 126.932 531.425 113.367 527.182 113.079C516.773 113.031 521.486 133.616 521.296 149.653C521.231 155.303 512.256 155.303 512.256 149.031C512.256 128.573 507.873 104.171 527.402 104.171C533.145 104.171 538.551 112.726 543.419 120.792C549.007 131.028 555.661 144.624 559.904 144.915C570.31 144.96 565.352 124.779 565.555 108.751C565.623 103.1 574.596 103.1 574.596 109.372C574.596 129.83 579.229 153.829 559.704 153.829C553.946 153.837 548.043 145.24 543.173 137.168Z" fill="#D90010"/>
<path fill-rule="evenodd" clip-rule="evenodd" d="M13.282 116.206C13.4543 117.701 13.3216 123.925 7.56358 132.477C1.59369 141.905 11.0274 157.648 30.0474 153.667C37.6305 155.91 45.6993 155.921 53.2884 153.698C72.3084 157.693 81.6857 141.922 75.7214 132.491C69.9776 123.948 69.8334 117.726 70.0058 116.22L13.282 116.206Z" fill="#D90010"/>
<path fill-rule="evenodd" clip-rule="evenodd" d="M41.6444 155.247C23.0595 154.772 19.686 146.223 24.8225 144.428C27.806 143.386 31.7275 141.64 31.7275 141.64C29.7498 131.986 33.0046 119.673 41.6953 119.682C50.3859 119.69 53.5361 132.381 51.5669 141.843C51.5669 141.843 55.5224 143.256 58.4664 144.428C63.292 146.324 60.2265 154.772 41.6444 155.247Z" fill="#0069B4"/>
<path fill-rule="evenodd" clip-rule="evenodd" d="M34.6455 148.428C29.7492 134.866 34.0381 121.774 41.6467 121.802C48.8964 121.853 53.7955 134.383 48.6958 148.49C46.2873 148.058 43.8416 147.869 41.3952 147.925C39.1376 147.932 36.8833 148.097 34.6484 148.416L34.6455 148.428Z" fill="#FFD700"/>
<path fill-rule="evenodd" clip-rule="evenodd" d="M41.6423 155.385C49.1294 155.385 55.0172 153.789 55.0172 151.557C55.0172 149.325 49.1294 147.729 41.6423 147.729C34.1552 147.729 28.2672 149.325 28.2672 151.557C28.2672 153.789 34.1552 155.385 41.6423 155.385Z" fill="#F48300"/>
<path fill-rule="evenodd" clip-rule="evenodd" d="M16.9134 123.015H25.9007C26.2393 123.014 26.5747 123.081 26.8876 123.21C27.2006 123.339 27.4849 123.529 27.7245 123.768C27.964 124.008 28.1541 124.292 28.2838 124.605C28.4135 124.918 28.4802 125.253 28.4802 125.591V131.655C28.4795 132.338 28.2074 132.993 27.7237 133.477C27.24 133.96 26.5844 134.231 25.9007 134.231H16.9134C16.5746 134.232 16.2391 134.165 15.926 134.036C15.6129 133.907 15.3283 133.717 15.0885 133.478C14.8487 133.238 14.6584 132.954 14.5284 132.641C14.3984 132.329 14.3314 131.993 14.3311 131.655V125.591C14.3314 125.253 14.3984 124.917 14.5284 124.604C14.6584 124.292 14.8487 124.007 15.0885 123.768C15.3283 123.529 15.6129 123.339 15.926 123.21C16.2391 123.081 16.5746 123.014 16.9134 123.015Z" fill="#0069B4"/>
<path d="M25.8978 134.469H16.9105C16.1612 134.469 15.4425 134.171 14.9127 133.641C14.3828 133.111 14.0852 132.393 14.0852 131.643V125.58C14.0852 124.831 14.3828 124.112 14.9127 123.582C15.4425 123.052 16.1612 122.755 16.9105 122.755H25.8978C26.6472 122.755 27.3657 123.052 27.8956 123.582C28.4254 124.112 28.7232 124.831 28.7232 125.58V131.643C28.7232 132.393 28.4254 133.111 27.8956 133.641C27.3657 134.171 26.6472 134.469 25.8978 134.469ZM16.9105 123.255C16.2896 123.256 15.6942 123.503 15.2551 123.942C14.8161 124.381 14.5691 124.976 14.5683 125.597V131.66C14.5698 132.281 14.8172 132.875 15.2562 133.314C15.6952 133.752 16.2901 133.999 16.9105 134H25.8978C26.518 133.999 27.1126 133.752 27.5511 133.314C27.9897 132.875 28.2365 132.28 28.2372 131.66V125.597C28.2372 124.976 27.9908 124.381 27.5522 123.942C27.1135 123.503 26.5185 123.256 25.8978 123.255H16.9105Z" fill="#161615"/>
<path fill-rule="evenodd" clip-rule="evenodd" d="M15.9949 126.412C15.9957 125.897 16.2008 125.403 16.5653 125.039C16.9298 124.675 17.4238 124.471 17.9388 124.471H25.0557C25.5708 124.471 26.0648 124.675 26.4292 125.039C26.7937 125.403 26.9988 125.897 26.9996 126.412V130.833C26.9996 131.349 26.7948 131.843 26.4303 132.208C26.0657 132.572 25.5713 132.777 25.0557 132.777H17.936C17.4204 132.777 16.926 132.572 16.5615 132.208C16.197 131.843 15.9922 131.349 15.9922 130.833L15.9949 126.412Z" fill="#161615"/>
<path fill-rule="evenodd" clip-rule="evenodd" d="M27.0124 129.729C23.7972 129.409 22.6755 125.64 22.4071 124.471H25.0686C25.5836 124.471 26.0776 124.675 26.442 125.039C26.8065 125.403 27.0116 125.897 27.0124 126.412V129.729Z" fill="#FFD700"/>
<path fill-rule="evenodd" clip-rule="evenodd" d="M20.645 124.471C20.4331 125.541 19.4245 129.576 15.9974 129.743V126.412C15.9982 125.897 16.2033 125.403 16.5678 125.039C16.9322 124.675 17.4262 124.471 17.9412 124.471H20.645Z" fill="#FFD700"/>
<path fill-rule="evenodd" clip-rule="evenodd" d="M57.3943 123.015H66.3815C67.0649 123.015 67.7203 123.286 68.2036 123.769C68.6868 124.253 68.9582 124.908 68.9582 125.591V131.655C68.9574 132.338 68.6858 132.993 68.2027 133.476C67.7196 133.959 67.0647 134.23 66.3815 134.231H57.3943C56.7106 134.231 56.0549 133.96 55.5712 133.477C55.0875 132.993 54.8154 132.338 54.8147 131.655V125.591C54.8147 124.908 55.0863 124.253 55.5695 123.769C56.0527 123.286 56.708 123.015 57.3913 123.015H57.3943Z" fill="#0069B4"/>
<path d="M66.3789 134.469H57.3915C56.6422 134.469 55.9236 134.171 55.3937 133.641C54.8639 133.111 54.5662 132.393 54.5662 131.643V125.58C54.5662 124.831 54.8639 124.112 55.3937 123.582C55.9236 123.052 56.6422 122.755 57.3915 122.755H66.3789C67.1282 122.755 67.8468 123.052 68.3766 123.582C68.9065 124.112 69.2042 124.831 69.2042 125.58V131.643C69.2042 132.393 68.9065 133.111 68.3766 133.641C67.8468 134.171 67.1282 134.469 66.3789 134.469ZM57.3915 123.255C56.771 123.256 56.1764 123.504 55.7379 123.943C55.2994 124.382 55.0529 124.977 55.0521 125.597V131.66C55.0529 132.28 55.2995 132.875 55.7381 133.314C56.1766 133.752 56.7713 133.999 57.3915 134H66.3789C66.9994 133.999 67.5941 133.752 68.0331 133.314C68.4721 132.875 68.7195 132.281 68.721 131.66V125.597C68.7203 124.976 68.4733 124.381 68.0342 123.942C67.5951 123.503 66.9998 123.256 66.3789 123.255H57.3915Z" fill="#161615"/>
<path fill-rule="evenodd" clip-rule="evenodd" d="M56.467 126.412C56.4678 125.897 56.673 125.403 57.0375 125.039C57.4019 124.675 57.896 124.471 58.411 124.471H65.5336C66.0486 124.471 66.5427 124.675 66.9071 125.039C67.2716 125.403 67.4766 125.897 67.4774 126.412V130.833C67.4778 131.089 67.4277 131.342 67.3301 131.578C67.2326 131.814 67.0894 132.028 66.9088 132.209C66.7283 132.389 66.5139 132.532 66.2779 132.63C66.0419 132.727 65.789 132.778 65.5336 132.777H58.411C57.8955 132.777 57.401 132.572 57.0364 132.208C56.6719 131.843 56.467 131.349 56.467 130.833V126.412Z" fill="#161615"/>
<path fill-rule="evenodd" clip-rule="evenodd" d="M67.4877 129.729C64.2725 129.409 63.1507 125.64 62.8795 124.471H65.5438C66.0588 124.471 66.5528 124.675 66.9173 125.039C67.2817 125.403 67.487 125.897 67.4877 126.412V129.729Z" fill="#FFD700"/>
<path fill-rule="evenodd" clip-rule="evenodd" d="M61.1229 124.471C60.9166 125.541 59.9024 129.576 56.4753 129.743V126.412C56.4761 125.897 56.6812 125.403 57.0456 125.039C57.4101 124.675 57.9041 124.471 58.4191 124.471H61.1229Z" fill="#FFD700"/>
<path fill-rule="evenodd" clip-rule="evenodd" d="M60.2472 92.8935C59.2894 89.6698 59.1171 88.048 62.0752 88.0423H68.5988C72.5316 87.9689 70.91 91.0371 70.5144 94.0546C70.2578 95.7693 70.0881 97.496 70.0059 99.2279C70.0059 99.2279 60.2613 92.9189 60.2472 92.8935Z" fill="#D90010"/>
<path fill-rule="evenodd" clip-rule="evenodd" d="M41.616 115.902C31.9364 115.902 18.5981 116.75 10.0516 117.403C3.48271 117.911 -1.59715 112.908 2.77643 108.173C12.0745 98.1059 34.7985 85.3779 41.6838 85.3779C49.0014 85.3779 71.2959 98.0918 80.594 108.173C84.9648 112.908 80.5545 117.403 73.9658 117.403C66.6172 117.403 51.2983 115.917 41.616 115.902Z" fill="#F48300"/>
<path fill-rule="evenodd" clip-rule="evenodd" d="M46.8552 138.494C46.8602 138.199 46.9674 137.915 47.1583 137.69C47.3492 137.465 47.6121 137.313 47.9024 137.26C48.1927 137.207 48.4923 137.256 48.7505 137.399C49.0087 137.542 49.2094 137.77 49.3185 138.044C49.4277 138.318 49.4385 138.622 49.3492 138.903C49.2599 139.184 49.0759 139.426 48.8286 139.587C48.5813 139.747 48.2859 139.818 47.9926 139.786C47.6993 139.753 47.4262 139.621 47.2197 139.41C47.1014 139.289 47.0083 139.146 46.9457 138.989C46.8831 138.832 46.8523 138.663 46.8552 138.494Z" fill="#161615"/>
<path fill-rule="evenodd" clip-rule="evenodd" d="M41.6516 147.51C39.313 147.509 36.9781 147.698 34.6702 148.075C30.0706 134.675 34.2888 122.017 41.6516 122.017C49.0143 122.017 53.2353 134.68 48.6301 148.078C46.3247 147.688 43.9898 147.498 41.6516 147.51ZM48.469 148.561C52.2747 149.171 54.8203 150.282 54.8203 151.553C54.8203 153.494 48.9267 155.062 41.66 155.062C34.3933 155.062 28.4799 153.488 28.4799 151.553C28.4799 150.276 31.0227 149.166 34.8368 148.558C34.8368 148.558 38.9845 148.061 41.6516 148.061C44.3187 148.061 48.469 148.558 48.469 148.558V148.561ZM49.034 148.157C53.8653 134.237 49.1781 121.449 41.6572 121.478C34.1333 121.452 29.4462 134.24 34.2803 148.157C30.5537 148.88 28.0815 150.135 28.0815 151.547C28.0998 151.803 28.174 152.051 28.299 152.275C28.424 152.499 28.5968 152.692 28.8049 152.841C22.5383 150.087 21.9619 145.595 25.3833 144.382C28.3527 143.329 31.9805 141.919 31.9805 141.919C30.0649 132.547 33.0174 119.969 41.6572 119.974C50.297 119.98 53.241 132.55 51.3311 141.919C51.3311 141.919 54.9361 143.382 57.9281 144.382C61.2931 145.513 60.7987 150.033 54.5547 152.808C54.7519 152.655 54.9141 152.462 55.0306 152.242C55.147 152.022 55.2151 151.779 55.23 151.53C55.23 150.118 52.755 148.866 49.0143 148.14L49.034 148.157ZM60.7167 92.7046C59.9624 89.7606 59.9567 88.5571 62.4967 88.5373H68.071C71.7807 88.4667 70.2635 91.3344 69.9273 94.188C69.7239 95.9227 69.608 97.2958 69.5374 98.3666C66.5595 96.29 63.5844 94.3857 60.7167 92.716V92.7046ZM54.2185 153.548C72.0576 156.568 80.7764 141.605 75.0608 132.559C71.9169 128.187 69.9789 123.066 69.4413 117.709C57.7474 117.09 49.7037 116.525 41.6516 116.409C33.5938 116.525 25.5473 117.09 13.8589 117.703C13.3239 123.062 11.3856 128.185 8.23934 132.556C2.51526 141.597 11.2455 156.571 29.0873 153.545C21.507 150.674 20.5831 145.789 24.6205 144.221C27.5673 143.091 31.5256 141.636 31.5256 141.636C29.5479 131.982 32.9665 119.251 41.643 119.263C50.3196 119.274 53.7382 131.977 51.7577 141.636C51.7577 141.636 55.7131 143.083 58.6628 144.221C62.7199 145.781 61.7875 150.677 54.2213 153.545L54.2185 153.548ZM41.6629 115.211C31.6245 115.352 22.0863 116.059 10.8669 116.785C3.90538 117.231 0.000774985 112.583 4.38566 107.783C10.8443 100.72 32.9072 86.1555 41.6487 86.1555C50.3902 86.1555 72.4446 100.714 78.9118 107.783C83.2995 112.569 79.3949 117.234 72.4305 116.785C61.2168 116.056 51.704 115.349 41.6629 115.205V115.211ZM59.4143 91.9474C59.3436 91.6649 59.2589 91.3824 59.177 91.0998C58.6939 89.3679 59.1261 87.427 62.1209 87.427H68.6191C72.4474 87.427 72.0095 90.0658 71.3738 92.6284C70.8609 94.7069 70.5235 96.8248 70.3652 98.9598C70.3652 98.9598 75.6881 102.876 78.6349 105.342C87.9584 113.191 81.8812 118.339 73.004 117.881L70.3793 117.748C70.6332 122.46 72.3552 126.974 75.3038 130.657C85.6162 142.978 71.9671 158.458 52.6816 154.107C45.4738 156.176 37.8292 156.176 30.6215 154.107C11.3415 158.464 -2.31033 142.987 8.00206 130.657C10.9487 126.973 12.6686 122.459 12.9209 117.748L10.299 117.881C1.42187 118.327 -4.64967 113.191 4.66821 105.342C18.4896 93.6963 35.2069 85.0424 41.6543 85C45.1888 85.0339 51.8537 87.6587 59.403 91.9503L59.4143 91.9474Z" fill="#161615"/>
</svg>
