<svg width="20" height="20" viewBox="0 0 20 20" fill="none" xmlns="http://www.w3.org/2000/svg">
<g clip-path="url(#clip0_25_99)">
<path fill-rule="evenodd" clip-rule="evenodd" d="M13.6667 2.23642V4.50342H14.6017C15.0892 4.54605 15.4757 4.93258 15.5183 5.42009V16.9581C15.5136 17.1664 15.4256 17.3641 15.274 17.5071C15.1224 17.65 14.9199 17.7263 14.7117 17.7189H13.685V18.4706C13.6445 18.8222 13.3468 19.0875 12.9929 19.0875C12.639 19.0875 12.3414 18.8222 12.3008 18.4706V17.7189H7.7175V18.4889C7.72007 18.6712 7.64815 18.8466 7.51839 18.9747C7.38862 19.1027 7.21223 19.1723 7.03 19.1673C6.84694 19.1722 6.66966 19.1029 6.53845 18.9752C6.40724 18.8474 6.33327 18.672 6.33333 18.4889V17.7373H5.30667C5.09844 17.7447 4.89592 17.6684 4.74435 17.5254C4.59277 17.3824 4.50477 17.1847 4.5 16.9764V5.42009C4.54263 4.93258 4.92915 4.54605 5.41667 4.50342H6.33333V2.23642C6.30724 1.86671 6.43888 1.50323 6.69567 1.23597C6.95245 0.968703 7.31037 0.822635 7.68083 0.833922H12.3192C12.6888 0.825491 13.045 0.972451 13.3011 1.23905C13.5573 1.50565 13.6899 1.86744 13.6667 2.23642ZM12.2733 2.75892C12.295 2.48994 12.1011 2.25156 11.8333 2.21809H8.16667C8.03118 2.22512 7.90425 2.28645 7.81455 2.38822C7.72485 2.49 7.67995 2.62363 7.69 2.75892V4.50343H12.2733V2.75892Z" fill="white"/>
</g>
<defs>
<clipPath id="clip0_25_99">
<rect width="20" height="20" fill="white"/>
</clipPath>
</defs>
</svg>
