<svg width="19" height="19" viewBox="0 0 19 19" fill="none" xmlns="http://www.w3.org/2000/svg">
<path fill-rule="evenodd" clip-rule="evenodd" d="M10.3636 5.56061H15.0454C16.7699 5.56061 18.1667 6.95735 18.1667 8.68182V14.9242C18.1667 15.3534 17.8155 15.7045 17.3864 15.7045C16.9572 15.7045 16.6061 15.3534 16.6061 14.9242V13.3636H2.56061V14.9242C2.56061 15.3534 2.20947 15.7045 1.7803 15.7045C1.35114 15.7045 1 15.3534 1 14.9242V4.7803C1 4.35114 1.35114 4 1.7803 4C2.20947 4 2.56061 4.35114 2.56061 4.7803V11.0227H8.80303V7.12121C8.80303 6.26288 9.5053 5.56061 10.3636 5.56061ZM8.02272 7.90153C8.02272 9.19683 6.97712 10.2424 5.68182 10.2424C4.38651 10.2424 3.34091 9.19683 3.34091 7.90153C3.34091 6.60623 4.38651 5.56062 5.68182 5.56062C6.97712 5.56062 8.02272 6.60623 8.02272 7.90153Z" fill="#0350AC"/>
</svg>
