<svg width="17" height="17" viewBox="0 0 17 17" fill="none" xmlns="http://www.w3.org/2000/svg">
<g clip-path="url(#clip0_1101_268)">
<path d="M1.62885 1.20488L10.5131 3.80194C10.6455 3.84053 10.7886 3.80402 10.886 3.70634L12.6245 1.96309C12.6245 1.96309 12.9816 1.61605 13.7381 1.0603C15.9507 -0.365296 16.6154 0.38461 16.6154 0.38461C16.6154 0.38461 17.3653 1.04931 15.9397 3.26192C15.384 4.01836 15.0369 4.3755 15.0369 4.3755L13.3379 6.06977C13.2901 6.11737 13.256 6.17691 13.2391 6.24218C13.2222 6.30744 13.2231 6.37606 13.2417 6.44086L15.7951 15.3709C15.8322 15.4881 15.7907 15.6226 15.6948 15.7081L15.107 16.2137C14.9686 16.3315 14.7647 16.3143 14.6596 16.1775L10.0176 9.96744C9.98576 9.92505 9.94525 9.88989 9.89879 9.86429C9.85234 9.83869 9.80098 9.82321 9.74811 9.8189C9.69524 9.81458 9.64206 9.82151 9.59206 9.83923C9.54206 9.85695 9.49638 9.88507 9.45804 9.92172C9.06535 10.2916 8.65676 10.6442 8.23343 10.9786C7.44433 11.6029 6.29187 12.4933 5.17769 13.2625L5.6616 16.184C5.68505 16.3304 5.59837 16.4785 5.45587 16.5388L4.8256 16.7884C4.67776 16.849 4.51388 16.7914 4.44827 16.6566L3.6669 15.0749C3.49471 14.726 3.08205 14.5598 2.72135 14.7047C2.59715 14.7566 2.46859 14.7974 2.33719 14.8267C2.3147 14.8313 2.29142 14.8302 2.26944 14.8236C2.24745 14.817 2.22745 14.805 2.21122 14.7888C2.19498 14.7726 2.18303 14.7526 2.17641 14.7306C2.1698 14.7086 2.16874 14.6853 2.17332 14.6628C2.19648 14.5491 2.23804 14.4191 2.29504 14.2757C2.43902 13.9156 2.27218 13.5044 1.92424 13.3325L0.343381 12.5517C0.208303 12.4864 0.151006 12.3223 0.211569 12.1747L0.463913 11.5465C0.521506 11.4016 0.669647 11.315 0.818381 11.3411L3.73755 11.822C4.50676 10.7084 5.39709 9.55567 6.02171 8.76658C6.3529 8.34799 6.70184 7.94377 7.0676 7.55503C7.10408 7.51663 7.13203 7.47096 7.14962 7.421C7.1672 7.37104 7.17404 7.31793 7.16966 7.26515C7.16529 7.21237 7.14981 7.16111 7.12424 7.11472C7.09867 7.06834 7.06359 7.02789 7.02129 6.99602L0.825209 2.3428C0.68835 2.238 0.66846 2.03138 0.788694 1.8957L1.2919 1.30522C1.3774 1.20933 1.51158 1.16777 1.62885 1.20488Z" fill="#0350AC"/>
</g>
<defs>
<clipPath id="clip0_1101_268">
<rect width="17" height="17" fill="white"/>
</clipPath>
</defs>
</svg>
