<svg width="20" height="20" viewBox="0 0 20 20" fill="none" xmlns="http://www.w3.org/2000/svg">
<path d="M15.0972 2C16.8998 2 19.3333 3.95974 19.3333 5.63441C19.3333 7.30908 17.872 8.66667 16.0694 8.66667L16.2298 8.66275C16.6167 9.42146 16.8333 10.2705 16.8333 11.1667C16.8333 14.3883 14.0351 17 10.5833 17C7.13156 17 4.33334 14.3883 4.33334 11.1667C4.33334 10.2347 4.5675 9.3538 4.9839 8.57239C4.73836 8.6342 4.4959 8.66667 4.26389 8.66667C2.4613 8.66667 1 7.30908 1 5.63441C1 3.95974 3.43352 2 5.23611 2C7.03871 2 8.5 3.35759 8.5 5.03226C8.5 5.25424 8.45725 5.48123 8.37887 5.70801C9.06358 5.46547 9.80692 5.33333 10.5833 5.33333C11.0294 5.33333 11.4645 5.37695 11.8841 5.45986C11.8506 5.31666 11.8333 5.17345 11.8333 5.03226C11.8333 3.35759 13.2946 2 15.0972 2Z" fill="white"/>
</svg>
