<?xml version="1.0" encoding="utf-8"?>
<!-- Generated by IcoMoon.io -->
<svg version="1.1" xmlns="http://www.w3.org/2000/svg" xmlns:xlink="http://www.w3.org/1999/xlink" width="752" height="32" viewBox="0 0 752 32">
<svg id="card-amex" width="51" height="32" viewBox="0 0 51 32" x="0" y="0">
<path fill="#0072ce" d="M5.973 3.413h39.253c0.943 0 1.707 0.764 1.707 1.707v22.187c0 0.943-0.764 1.707-1.707 1.707h-39.253c-0.943 0-1.707-0.764-1.707-1.707v-22.187c0-0.943 0.764-1.707 1.707-1.707z"></path>
<path fill="#fff" d="M40.28 18.204h-1.507c-0.151 0-0.251 0.006-0.335 0.062-0.087 0.056-0.121 0.139-0.121 0.248 0 0.13 0.074 0.219 0.181 0.257 0.087 0.030 0.181 0.039 0.319 0.039l0.448 0.012c0.452 0.011 0.754 0.089 0.938 0.278 0.033 0.026 0.054 0.056 0.077 0.085v-0.982zM40.28 20.479c-0.201 0.293-0.592 0.441-1.122 0.441h-1.597v-0.74h1.591c0.158 0 0.268-0.021 0.335-0.085 0.058-0.053 0.098-0.131 0.098-0.225 0-0.101-0.040-0.18-0.101-0.228-0.060-0.053-0.147-0.077-0.291-0.077-0.777-0.026-1.745 0.024-1.745-1.068 0-0.5 0.319-1.027 1.187-1.027h1.648v-0.687h-1.531c-0.462 0-0.797 0.11-1.035 0.282v-0.282h-2.264c-0.362 0-0.787 0.090-0.988 0.282v-0.282h-4.043v0.282c-0.322-0.231-0.865-0.282-1.115-0.282h-2.667v0.282c-0.255-0.246-0.821-0.282-1.166-0.282h-2.985l-0.683 0.737-0.64-0.737h-4.459v4.815h4.375l0.704-0.749 0.663 0.749 2.697 0.002v-1.133h0.265c0.358 0.006 0.78-0.009 1.152-0.169v1.299h2.224v-1.255h0.107c0.137 0 0.15 0.006 0.15 0.142v1.113h6.757c0.429 0 0.877-0.109 1.126-0.308v0.308h2.143c0.446 0 0.882-0.062 1.213-0.222v-0.897zM36.981 19.1c0.161 0.166 0.247 0.376 0.247 0.731 0 0.742-0.465 1.089-1.299 1.089h-1.611v-0.74h1.605c0.157 0 0.268-0.021 0.338-0.085 0.057-0.053 0.098-0.131 0.098-0.225 0-0.101-0.044-0.18-0.101-0.228-0.063-0.053-0.151-0.077-0.295-0.077-0.773-0.026-1.742 0.024-1.742-1.068 0-0.5 0.315-1.027 1.183-1.027h1.658v0.734h-1.517c-0.15 0-0.248 0.006-0.331 0.062-0.091 0.056-0.124 0.139-0.124 0.248 0 0.13 0.077 0.219 0.181 0.257 0.087 0.030 0.181 0.039 0.322 0.039l0.445 0.012c0.449 0.011 0.757 0.088 0.945 0.278v0zM29.518 18.887c-0.111 0.065-0.247 0.071-0.408 0.071h-1.005v-0.775h1.018c0.147 0 0.295 0.003 0.395 0.062 0.107 0.056 0.171 0.163 0.171 0.31s-0.064 0.267-0.171 0.331v0zM30.017 19.317c0.184 0.068 0.335 0.189 0.405 0.29 0.117 0.168 0.134 0.326 0.137 0.63v0.684h-0.83v-0.432c0-0.208 0.020-0.515-0.134-0.675-0.121-0.124-0.305-0.153-0.607-0.153h-0.884v1.26h-0.831v-3.451h1.91c0.419 0 0.724 0.018 0.995 0.163 0.261 0.157 0.425 0.373 0.425 0.766-0 0.551-0.369 0.832-0.586 0.918v0zM31.062 17.47h2.761v0.714h-1.937v0.627h1.89v0.704h-1.89v0.687l1.937 0.003v0.716h-2.761v-3.451zM25.482 19.062h-1.069v-0.879h1.078c0.299 0 0.506 0.121 0.506 0.423 0 0.298-0.198 0.456-0.515 0.456v0zM23.589 20.607l-1.27-1.406 1.27-1.361v2.767zM20.31 20.201h-2.034v-0.687h1.816v-0.704h-1.816v-0.627h2.074l0.905 1.006-0.945 1.012zM26.885 18.606c0 0.959-0.717 1.157-1.44 1.157h-1.032v1.157h-1.608l-1.018-1.142-1.058 1.142h-3.276v-3.451h3.327l1.018 1.131 1.052-1.131h2.643c0.656 0 1.394 0.181 1.394 1.137v0z"></path>
<path fill="#fff" d="M13.506 13.493l-0.566-1.375-0.563 1.375h1.129zM25.977 12.945c-0.114 0.069-0.248 0.071-0.409 0.071h-1.005v-0.766h1.018c0.144 0 0.295 0.006 0.392 0.062 0.107 0.050 0.174 0.157 0.174 0.305 0 0.151-0.063 0.272-0.17 0.328v0zM33.145 13.493l-0.572-1.375-0.569 1.375h1.142zM19.784 14.982h-0.848l-0.003-2.702-1.199 2.702h-0.726l-1.202-2.704v2.704h-1.682l-0.318-0.77h-1.722l-0.321 0.77h-0.898l1.481-3.45h1.229l1.407 3.266v-3.266h1.35l1.082 2.34 0.994-2.34h1.377v3.45h0zM23.163 14.982h-2.763v-3.45h2.763v0.718h-1.936v0.622h1.889v0.707h-1.889v0.689h1.936v0.714zM27.059 12.461c0 0.55-0.368 0.834-0.583 0.92 0.181 0.069 0.336 0.19 0.409 0.291 0.117 0.172 0.137 0.325 0.137 0.633v0.678h-0.834l-0.003-0.435c0-0.208 0.020-0.506-0.131-0.672-0.121-0.121-0.305-0.148-0.603-0.148h-0.888v1.255h-0.827v-3.45h1.902c0.423 0 0.734 0.011 1.002 0.165 0.262 0.154 0.419 0.379 0.419 0.764v0zM28.383 14.982h-0.844v-3.45h0.844v3.45zM38.173 14.982h-1.172l-1.568-2.589v2.589h-1.684l-0.322-0.77h-1.718l-0.312 0.77h-0.968c-0.402 0-0.911-0.089-1.199-0.382-0.291-0.293-0.442-0.69-0.442-1.317 0-0.512 0.090-0.979 0.446-1.349 0.267-0.275 0.686-0.402 1.256-0.402h0.801v0.739h-0.784c-0.302 0-0.472 0.045-0.636 0.204-0.141 0.145-0.238 0.42-0.238 0.781 0 0.37 0.074 0.636 0.227 0.81 0.127 0.137 0.359 0.178 0.576 0.178h0.371l1.166-2.713h1.239l1.4 3.263v-3.263h1.259l1.454 2.403v-2.403h0.847v3.45zM10.854 15.659h1.413l0.319-0.766h0.713l0.318 0.766h2.781v-0.586l0.248 0.588h1.443l0.248-0.597v0.595h6.91l-0.003-1.258h0.134c0.094 0.003 0.121 0.012 0.121 0.166v1.092h3.574v-0.293c0.288 0.154 0.737 0.293 1.327 0.293h1.504l0.322-0.766h0.713l0.315 0.766h2.897v-0.728l0.439 0.728h2.322v-4.812h-2.298v0.568l-0.322-0.568h-2.358v0.568l-0.295-0.568h-3.185c-0.533 0-1.002 0.074-1.38 0.281v-0.281h-2.198v0.281c-0.241-0.213-0.569-0.281-0.934-0.281h-8.030l-0.539 1.243-0.553-1.243h-2.529v0.568l-0.278-0.568h-2.157l-1.002 2.288v2.524h0z"></path>
</svg>
<svg id="card-diners" width="51" height="32" viewBox="0 0 51 32" x="96" y="0">
<path fill="#0069aa" d="M5.973 3.413h39.253c0.943 0 1.707 0.764 1.707 1.707v22.187c0 0.943-0.764 1.707-1.707 1.707h-39.253c-0.943 0-1.707-0.764-1.707-1.707v-22.187c0-0.943 0.764-1.707 1.707-1.707z"></path>
<path fill="#fff" d="M12.607 18.766c0-0.515-0.269-0.481-0.526-0.486v-0.149c0.223 0.011 0.452 0.011 0.676 0.011 0.24 0 0.567-0.011 0.991-0.011 1.483 0 2.29 0.99 2.29 2.004 0 0.567-0.332 1.993-2.359 1.993-0.292 0-0.561-0.011-0.83-0.011-0.257 0-0.51 0.005-0.767 0.011v-0.149c0.343-0.035 0.51-0.046 0.526-0.435v-2.777zM13.168 21.451c0 0.441 0.315 0.492 0.596 0.492 1.237 0 1.643-0.933 1.643-1.786 0-1.071-0.687-1.844-1.792-1.844-0.235 0-0.344 0.017-0.447 0.023v3.114z"></path>
<path fill="#fff" d="M16.238 21.979h0.108c0.16 0 0.275 0 0.275-0.189v-1.552c0-0.252-0.086-0.286-0.298-0.401v-0.091c0.269-0.081 0.59-0.189 0.613-0.206 0.040-0.023 0.074-0.029 0.103-0.029 0.028 0 0.040 0.034 0.040 0.081v2.198c0 0.189 0.126 0.189 0.287 0.189h0.097v0.149c-0.195 0-0.395-0.011-0.601-0.011s-0.412 0.005-0.624 0.011v-0.149zM16.851 18.629c-0.149 0-0.281-0.137-0.281-0.286 0-0.143 0.138-0.275 0.281-0.275 0.149 0 0.281 0.121 0.281 0.275s-0.126 0.286-0.281 0.286v0z"></path>
<path fill="#fff" d="M18.007 20.272c0-0.211-0.063-0.269-0.332-0.378v-0.109c0.246-0.080 0.48-0.155 0.756-0.275 0.017 0 0.034 0.011 0.034 0.057v0.372c0.327-0.234 0.607-0.43 0.992-0.43 0.486 0 0.658 0.355 0.658 0.802v1.477c0 0.189 0.126 0.189 0.286 0.189h0.103v0.149c-0.201 0-0.401-0.011-0.607-0.011s-0.413 0.005-0.619 0.011v-0.149h0.103c0.16 0 0.274 0 0.274-0.189v-1.482c0-0.327-0.199-0.487-0.526-0.487-0.183 0-0.475 0.149-0.665 0.275v1.694c0 0.189 0.127 0.189 0.287 0.189h0.103v0.149c-0.2 0-0.401-0.011-0.607-0.011s-0.412 0.005-0.618 0.011v-0.149h0.103c0.16 0 0.275 0 0.275-0.189v-1.517z"></path>
<path fill="#fff" d="M20.939 20.547c-0.012 0.052-0.012 0.137 0 0.332 0.034 0.544 0.384 0.99 0.841 0.99 0.315 0 0.562-0.172 0.773-0.383l0.080 0.080c-0.263 0.349-0.59 0.647-1.059 0.647-0.911 0-1.094-0.882-1.094-1.248 0-1.122 0.756-1.455 1.156-1.455 0.464 0 0.963 0.292 0.968 0.899 0 0.035 0 0.069-0.005 0.103l-0.052 0.035h-1.609zM21.953 20.364c0.143 0 0.16-0.075 0.16-0.144 0-0.292-0.177-0.526-0.498-0.526-0.349 0-0.59 0.257-0.658 0.67h0.997z"></path>
<path fill="#fff" d="M22.737 21.979h0.155c0.16 0 0.274 0 0.274-0.189v-1.609c0-0.177-0.212-0.212-0.298-0.258v-0.086c0.418-0.178 0.647-0.327 0.699-0.327 0.034 0 0.051 0.017 0.051 0.075v0.515h0.012c0.143-0.223 0.384-0.59 0.733-0.59 0.143 0 0.326 0.097 0.326 0.304 0 0.154-0.108 0.293-0.269 0.293-0.178 0-0.178-0.138-0.379-0.138-0.097 0-0.418 0.132-0.418 0.476v1.345c0 0.189 0.114 0.189 0.275 0.189h0.32v0.149c-0.315-0.006-0.555-0.011-0.801-0.011-0.235 0-0.475 0.005-0.681 0.011v-0.149z"></path>
<path fill="#fff" d="M24.941 21.331c0.075 0.378 0.303 0.699 0.722 0.699 0.337 0 0.463-0.206 0.463-0.407 0-0.676-1.248-0.458-1.248-1.38 0-0.321 0.258-0.733 0.888-0.733 0.183 0 0.429 0.052 0.652 0.167l0.040 0.584h-0.132c-0.057-0.361-0.257-0.567-0.624-0.567-0.229 0-0.446 0.131-0.446 0.378 0 0.67 1.328 0.464 1.328 1.363 0 0.378-0.303 0.779-0.985 0.779-0.229 0-0.498-0.080-0.698-0.195l-0.063-0.659 0.103-0.029z"></path>
<path fill="#fff" d="M31.755 19.167h-0.143c-0.109-0.669-0.584-0.939-1.225-0.939-0.659 0-1.615 0.441-1.615 1.815 0 1.157 0.825 1.987 1.706 1.987 0.566 0 1.037-0.39 1.151-0.991l0.132 0.034-0.132 0.836c-0.24 0.149-0.888 0.304-1.266 0.304-1.339 0-2.187-0.865-2.187-2.153 0-1.174 1.048-2.016 2.17-2.016 0.464 0 0.91 0.149 1.351 0.304l0.057 0.818z"></path>
<path fill="#fff" d="M31.962 21.979h0.108c0.161 0 0.275 0 0.275-0.189v-3.189c0-0.373-0.086-0.384-0.304-0.447v-0.092c0.229-0.074 0.47-0.177 0.59-0.246 0.062-0.034 0.108-0.063 0.125-0.063 0.035 0 0.046 0.035 0.046 0.081v3.956c0 0.189 0.126 0.189 0.286 0.189h0.097v0.149c-0.194 0-0.395-0.011-0.601-0.011s-0.412 0.005-0.624 0.011v-0.149z"></path>
<path fill="#fff" d="M35.638 21.812c0 0.103 0.063 0.109 0.16 0.109 0.069 0 0.155-0.005 0.23-0.005v0.121c-0.246 0.023-0.716 0.143-0.825 0.177l-0.029-0.017v-0.464c-0.343 0.28-0.607 0.481-1.014 0.481-0.309 0-0.63-0.201-0.63-0.681v-1.466c0-0.149-0.023-0.292-0.343-0.32v-0.109c0.206-0.006 0.663-0.040 0.738-0.040 0.064 0 0.064 0.040 0.064 0.166v1.477c0 0.172 0 0.664 0.498 0.664 0.194 0 0.452-0.148 0.692-0.349v-1.541c0-0.114-0.275-0.177-0.48-0.234v-0.103c0.515-0.035 0.836-0.080 0.893-0.080 0.046 0 0.046 0.040 0.046 0.103v2.112z"></path>
<path fill="#fff" d="M36.777 19.923c0.229-0.194 0.538-0.412 0.853-0.412 0.664 0 1.065 0.579 1.065 1.203 0 0.75-0.55 1.5-1.369 1.5-0.423 0-0.647-0.138-0.796-0.201l-0.171 0.132-0.12-0.063c0.051-0.338 0.080-0.67 0.080-1.019v-2.462c0-0.373-0.086-0.384-0.304-0.447v-0.092c0.229-0.074 0.469-0.177 0.59-0.246 0.063-0.034 0.109-0.063 0.126-0.063 0.034 0 0.046 0.035 0.046 0.081v2.089zM36.777 21.48c0 0.217 0.206 0.584 0.59 0.584 0.613 0 0.87-0.601 0.87-1.111 0-0.618-0.469-1.133-0.916-1.133-0.213 0-0.39 0.138-0.544 0.269v1.391z"></path>
<path fill="#fff" d="M12.074 25.457h0.044c0.112 0 0.23-0.015 0.23-0.177v-1.632c0-0.162-0.118-0.178-0.23-0.178h-0.044v-0.094c0.121 0 0.308 0.012 0.461 0.012 0.156 0 0.342-0.012 0.489-0.012v0.094h-0.044c-0.112 0-0.23 0.015-0.23 0.178v1.632c0 0.162 0.119 0.177 0.23 0.177h0.044v0.094c-0.149 0-0.337-0.012-0.492-0.012-0.153 0-0.337 0.012-0.458 0.012v-0.094z"></path>
<path fill="#fff" d="M13.025 25.564c-0.151 0-0.337-0.012-0.492-0.012-0.152 0-0.336 0.012-0.458 0.012h-0.014v-0.12h0.057c0.113-0.003 0.216-0.012 0.217-0.164v-1.632c-0.001-0.152-0.104-0.162-0.217-0.164h-0.057v-0.121h0.014c0.122 0 0.309 0.012 0.461 0.012 0.155 0 0.342-0.012 0.489-0.012h0.014v0.121h-0.057c-0.113 0.002-0.217 0.012-0.217 0.164v1.632c0.001 0.152 0.104 0.161 0.217 0.164h0.057v0.12h-0.014zM13.011 25.537l0-0.066h-0.030c-0.111 0-0.244-0.020-0.245-0.192v-1.632c0.001-0.172 0.133-0.192 0.245-0.192h0.030v-0.067c-0.144 0-0.324 0.013-0.475 0.013-0.148 0-0.327-0.012-0.448-0.013v0.067h0.030c0.111 0 0.244 0.019 0.244 0.192v1.632c0 0.172-0.133 0.192-0.244 0.192h-0.030v0.066c0.121-0.001 0.297-0.012 0.444-0.012 0.152 0 0.332 0.012 0.479 0.012v0z"></path>
<path fill="#fff" d="M15.165 24.936l0.006-0.006v-1.168c0-0.256-0.178-0.293-0.271-0.293h-0.069v-0.094c0.147 0 0.29 0.012 0.436 0.012 0.128 0 0.256-0.012 0.383-0.012v0.094h-0.046c-0.131 0-0.278 0.025-0.278 0.396v1.418c0 0.109 0.003 0.218 0.018 0.315h-0.118l-1.604-1.789v1.284c0 0.271 0.053 0.364 0.293 0.364h0.053v0.094c-0.134 0-0.268-0.012-0.402-0.012-0.14 0-0.283 0.012-0.424 0.012v-0.094h0.044c0.215 0 0.28-0.146 0.28-0.395v-1.313c0-0.174-0.144-0.28-0.283-0.28h-0.041v-0.094c0.118 0 0.24 0.012 0.358 0.012 0.094 0 0.184-0.012 0.277-0.012l1.387 1.561z"></path>
<path fill="#fff" d="M15.345 25.61l-0.128-0.004-1.581-1.762v1.249c0.004 0.271 0.045 0.348 0.28 0.351h0.067v0.12h-0.014c-0.135 0-0.269-0.012-0.402-0.012-0.14 0-0.283 0.012-0.424 0.012h-0.014v-0.12h0.058c0.206-0.001 0.265-0.134 0.267-0.382v-1.312c-0.001-0.166-0.137-0.267-0.27-0.267h-0.055v-0.121h0.014c0.119 0 0.241 0.012 0.358 0.012 0.093 0 0.183-0.012 0.288-0.007l1.369 1.541v-1.146c-0.002-0.247-0.167-0.277-0.258-0.279h-0.082v-0.121h0.014c0.147 0 0.291 0.012 0.436 0.012 0.127 0 0.255-0.012 0.383-0.012h0.014v0.121h-0.060c-0.129 0.003-0.261 0.015-0.264 0.382v1.418c0 0.109 0.003 0.218 0.018 0.312l0.003 0.016h-0.016zM15.227 25.583h0.103c-0.014-0.094-0.016-0.197-0.016-0.301v-1.418c0-0.374 0.157-0.409 0.291-0.409h0.033v-0.066c-0.123 0.001-0.246 0.012-0.37 0.012-0.143 0-0.281-0.011-0.422-0.012l-0 0.066h0.055c0.096 0 0.285 0.043 0.285 0.307l-0.004 1.178-0.006 0.006-0.011 0.010-1.386-1.567c-0.093 0-0.183 0.012-0.278 0.012-0.114 0-0.231-0.011-0.344-0.012l-0.001 0.066h0.028c0.146 0 0.296 0.112 0.296 0.294v1.312c0 0.249-0.069 0.409-0.294 0.409l-0.030-0.001v0.067c0.135-0.001 0.274-0.012 0.41-0.012 0.13 0 0.26 0.011 0.388 0.012v-0.066h-0.039c-0.245-0.001-0.306-0.108-0.306-0.379v-1.319l1.618 1.81zM15.165 24.936v0zM15.158 24.93v-0.001l-0.002-0.002 0.002 0.003z"></path>
<path fill="#fff" d="M16.118 23.531c-0.234 0-0.243 0.056-0.29 0.284h-0.094c0.012-0.087 0.028-0.174 0.037-0.265 0.012-0.088 0.019-0.175 0.019-0.265h0.075c0.025 0.094 0.103 0.090 0.188 0.090h1.607c0.085 0 0.162-0.003 0.169-0.097l0.074 0.013c-0.012 0.084-0.025 0.168-0.034 0.252-0.006 0.084-0.006 0.168-0.006 0.252l-0.094 0.035c-0.006-0.115-0.022-0.299-0.231-0.299h-0.511v1.658c0 0.24 0.109 0.268 0.259 0.268h0.059v0.094c-0.122 0-0.34-0.012-0.508-0.012-0.187 0-0.405 0.012-0.527 0.012v-0.094h0.059c0.172 0 0.259-0.015 0.259-0.261v-1.664h-0.511z"></path>
<path fill="#fff" d="M17.346 25.564c-0.123 0-0.341-0.012-0.508-0.012-0.187 0-0.405 0.012-0.527 0.012h-0.013v-0.12h0.073c0.172-0.004 0.241-0.006 0.245-0.248v-1.651h-0.497v-0.027h0.524v1.678c0 0.25-0.101 0.275-0.272 0.276h-0.046v0.066c0.123-0.001 0.333-0.012 0.514-0.012 0.162 0 0.37 0.011 0.494 0.012v-0.066h-0.046c-0.151-0-0.272-0.037-0.272-0.282v-1.671h0.524c0.209 0.001 0.237 0.178 0.243 0.294l0.067-0.025c0-0.081 0-0.163 0.006-0.245 0.009-0.081 0.021-0.16 0.032-0.24l-0.047-0.008c-0.015 0.091-0.102 0.096-0.18 0.094h-1.623c-0.073 0-0.153-0.003-0.181-0.090h-0.051c-0 0.086-0.006 0.17-0.018 0.253-0.009 0.086-0.024 0.168-0.035 0.25h0.066c0.041-0.217 0.068-0.288 0.301-0.284v0.027c-0.231 0.005-0.226 0.043-0.277 0.273l-0.002 0.011h-0.12l0.002-0.016c0.013-0.087 0.029-0.174 0.038-0.265 0.013-0.086 0.019-0.173 0.019-0.262v-0.014h0.099l0.002 0.010c0.021 0.079 0.079 0.079 0.158 0.081h1.623c0.087-0.001 0.15-0.003 0.155-0.084l0.001-0.015 0.014 0.003 0.088 0.014-0.002 0.014c-0.012 0.084-0.025 0.167-0.034 0.251-0.006 0.084-0.006 0.167-0.006 0.251v0.009l-0.009 0.004-0.11 0.040-0.001-0.018c-0.009-0.117-0.021-0.287-0.218-0.287h-0.497v1.644c0.003 0.235 0.096 0.251 0.245 0.254h0.073v0.12h-0.013z"></path>
<path fill="#fff" d="M18.003 25.457h0.044c0.112 0 0.231-0.015 0.231-0.177v-1.632c0-0.162-0.119-0.178-0.231-0.178h-0.044v-0.094c0.189 0 0.514 0.012 0.775 0.012s0.586-0.012 0.798-0.012c-0.005 0.134-0.002 0.34 0.007 0.477l-0.094 0.025c-0.015-0.203-0.052-0.364-0.38-0.364h-0.433v0.816h0.37c0.187 0 0.228-0.106 0.246-0.274h0.093c-0.006 0.122-0.010 0.243-0.010 0.365 0 0.119 0.003 0.237 0.010 0.355l-0.093 0.019c-0.019-0.187-0.028-0.308-0.243-0.308h-0.373v0.726c0 0.203 0.18 0.203 0.38 0.203 0.374 0 0.539-0.025 0.633-0.38l0.087 0.021c-0.040 0.165-0.078 0.33-0.106 0.495-0.2 0-0.558-0.012-0.838-0.012-0.281 0-0.651 0.012-0.829 0.012v-0.094z"></path>
<path fill="#fff" d="M19.669 25.564c-0.2 0-0.558-0.013-0.838-0.013-0.281 0-0.651 0.013-0.829 0.013h-0.013v-0.12h0.057c0.113-0.002 0.215-0.012 0.217-0.164v-1.632c-0.001-0.152-0.104-0.162-0.217-0.164h-0.057v-0.121h0.013c0.19 0 0.514 0.012 0.776 0.012s0.585-0.012 0.798-0.012h0.014l-0 0.014c-0.002 0.047-0.003 0.102-0.003 0.161 0 0.108 0.003 0.226 0.009 0.314l0.001 0.011-0.011 0.003-0.11 0.029-0-0.016c-0.018-0.202-0.046-0.349-0.366-0.352h-0.42l-0 0.789h0.358c0.18-0.002 0.212-0.094 0.233-0.262l0.001-0.012h0.12l-0 0.014c-0.006 0.122-0.010 0.243-0.010 0.364 0 0.118 0.004 0.236 0.010 0.355l0 0.011-0.011 0.003-0.108 0.022-0.001-0.015c-0.022-0.19-0.023-0.294-0.23-0.297h-0.361v0.712c0 0.189 0.164 0.188 0.367 0.189 0.375-0.002 0.525-0.021 0.619-0.37l0.003-0.013 0.013 0.002 0.1 0.026-0.003 0.013c-0.040 0.165-0.078 0.33-0.106 0.494l-0.002 0.011h-0.011zM19.658 25.537c0.027-0.158 0.063-0.315 0.101-0.472l-0.061-0.015c-0.093 0.349-0.274 0.38-0.642 0.377-0.196 0-0.393 0-0.394-0.216v-0.739h0.387c0.218-0.002 0.24 0.129 0.255 0.306l0.067-0.014c-0.006-0.115-0.009-0.23-0.009-0.344 0-0.117 0.003-0.234 0.009-0.351h-0.067c-0.018 0.163-0.068 0.276-0.258 0.274h-0.384v-0.843h0.447c0.324-0.003 0.378 0.165 0.392 0.361l0.067-0.018c-0.005-0.088-0.009-0.201-0.009-0.305 0-0.053 0.001-0.104 0.003-0.148-0.212 0.001-0.528 0.012-0.784 0.012s-0.571-0.011-0.762-0.012v0.066h0.030c0.111 0 0.243 0.019 0.244 0.192v1.632c-0.001 0.172-0.133 0.191-0.244 0.192h-0.030v0.066c0.181-0.001 0.542-0.012 0.815-0.012 0.275 0 0.626 0.012 0.826 0.012v0z"></path>
<path fill="#fff" d="M20.196 23.706c0-0.227-0.125-0.236-0.221-0.236h-0.056v-0.094c0.1 0 0.293 0.012 0.483 0.012 0.187 0 0.336-0.012 0.501-0.012 0.392 0 0.742 0.106 0.742 0.549 0 0.28-0.187 0.451-0.433 0.549l0.532 0.797c0.087 0.132 0.149 0.169 0.302 0.187v0.094c-0.103 0-0.203-0.012-0.305-0.012-0.097 0-0.197 0.012-0.293 0.012-0.24-0.315-0.446-0.651-0.648-1.010h-0.205v0.667c0 0.24 0.112 0.249 0.255 0.249h0.056v0.094c-0.178 0-0.358-0.012-0.536-0.012-0.15 0-0.296 0.012-0.452 0.012v-0.094h0.056c0.116 0 0.221-0.053 0.221-0.168v-1.583zM20.595 24.428h0.152c0.312 0 0.48-0.118 0.48-0.486 0-0.277-0.178-0.455-0.455-0.455-0.094 0-0.133 0.010-0.177 0.013v0.928z"></path>
<path fill="#fff" d="M22.046 25.564c-0.105 0-0.204-0.012-0.306-0.012-0.095 0-0.195 0.012-0.303 0.007-0.239-0.314-0.444-0.648-0.645-1.004h-0.184v0.653c0.003 0.235 0.097 0.233 0.241 0.236h0.070v0.12h-0.014c-0.178 0-0.359-0.012-0.536-0.012-0.149 0-0.295 0.012-0.452 0.012h-0.014v-0.12h0.070c0.112-0.001 0.207-0.050 0.207-0.154v-1.583c-0.002-0.221-0.11-0.22-0.207-0.223h-0.070v-0.121h0.014c0.101 0 0.293 0.012 0.483 0.012 0.186 0 0.335-0.012 0.501-0.012 0.393 0.001 0.754 0.109 0.755 0.562 0 0.281-0.186 0.457-0.426 0.555l0.523 0.784c0.087 0.129 0.141 0.162 0.293 0.181l0.011 0.002v0.119h-0.013zM20.594 24.527h0.213l0.004 0.007c0.203 0.358 0.408 0.694 0.637 1.003 0.095 0 0.195-0.012 0.292-0.012 0.099 0 0.196 0.011 0.292 0.012v-0.068c-0.146-0.018-0.215-0.062-0.3-0.191l-0.542-0.811 0.015-0.006c0.244-0.096 0.425-0.263 0.425-0.537-0-0.432-0.336-0.532-0.728-0.535-0.164 0-0.314 0.013-0.501 0.013-0.183 0-0.368-0.012-0.47-0.013v0.066h0.043c0.097 0 0.234 0.016 0.234 0.25v1.583c0 0.125-0.117 0.182-0.234 0.182h-0.043v0.066c0.15-0.001 0.292-0.012 0.438-0.012 0.174 0 0.35 0.012 0.522 0.012v-0.066h-0.043c-0.142-0-0.269-0.018-0.269-0.264v-0.68h0.014zM20.594 24.442h-0.014v-0.954l0.012-0.001c0.043-0.003 0.085-0.012 0.179-0.012 0.284 0 0.469 0.184 0.469 0.468-0.001 0.372-0.179 0.498-0.493 0.498h-0.152zM20.747 24.415c0.308-0.003 0.464-0.11 0.467-0.472-0.002-0.272-0.171-0.441-0.442-0.442-0.084 0-0.124 0.008-0.164 0.012v0.903h0.139z"></path>
<path fill="#fff" d="M24.162 24.936l0.005-0.006v-1.168c0-0.256-0.177-0.293-0.271-0.293h-0.068v-0.094c0.146 0 0.289 0.012 0.436 0.012 0.128 0 0.255-0.012 0.384-0.012v0.094h-0.047c-0.131 0-0.277 0.025-0.277 0.396v1.418c0 0.109 0.003 0.218 0.018 0.315h-0.118l-1.604-1.789v1.284c0 0.271 0.053 0.364 0.292 0.364h0.053v0.094c-0.134 0-0.268-0.012-0.402-0.012-0.141 0-0.284 0.012-0.424 0.012v-0.094h0.043c0.215 0 0.281-0.146 0.281-0.395v-1.313c0-0.174-0.144-0.28-0.284-0.28h-0.041v-0.094c0.118 0 0.24 0.012 0.359 0.012 0.093 0 0.183-0.012 0.277-0.012l1.387 1.561z"></path>
<path fill="#fff" d="M24.342 25.61l-0.128-0.004-1.581-1.762v1.248c0.004 0.271 0.045 0.348 0.28 0.351h0.066v0.12h-0.014c-0.135 0-0.268-0.013-0.402-0.013-0.139 0-0.283 0.013-0.423 0.013h-0.014v-0.12h0.057c0.206-0.001 0.265-0.134 0.267-0.382v-1.312c-0-0.166-0.136-0.266-0.269-0.266h-0.055v-0.121h0.014c0.119 0 0.241 0.012 0.359 0.012 0.092 0 0.182-0.012 0.286-0.008l1.37 1.542v-1.146c-0.001-0.247-0.167-0.278-0.257-0.279h-0.082v-0.121h0.014c0.147 0 0.291 0.012 0.436 0.012 0.127 0 0.255-0.012 0.383-0.012h0.014v0.121h-0.060c-0.129 0.003-0.261 0.015-0.264 0.382v1.418c0 0.109 0.003 0.217 0.019 0.313l0.002 0.015h-0.015zM24.224 25.583h0.102c-0.014-0.093-0.016-0.197-0.016-0.301v-1.418c0-0.374 0.158-0.409 0.291-0.409h0.033v-0.066c-0.123 0.001-0.246 0.012-0.369 0.012-0.143 0-0.282-0.011-0.423-0.012v0.066h0.055c0.096 0.001 0.285 0.043 0.285 0.307l-0.004 1.178-0.006 0.006-0.010 0.010-1.386-1.567c-0.093 0-0.183 0.012-0.277 0.012-0.116 0-0.232-0.011-0.345-0.012v0.066h0.027c0.147 0.001 0.297 0.111 0.297 0.294v1.312c0 0.25-0.070 0.409-0.294 0.41l-0.030-0v0.066c0.135-0.001 0.273-0.012 0.41-0.012 0.131 0 0.26 0.011 0.389 0.012v-0.066h-0.040c-0.245-0-0.306-0.107-0.307-0.379v-1.318l1.619 1.809zM24.161 24.936v0zM24.154 24.93v-0.001l-0.002-0.002 0.002 0.003z"></path>
<path fill="#fff" d="M25.149 25.105c-0.031 0.106-0.069 0.187-0.069 0.243 0 0.094 0.131 0.109 0.234 0.109h0.035v0.094c-0.125-0.007-0.252-0.012-0.378-0.012-0.112 0-0.224 0.005-0.336 0.012v-0.094h0.019c0.121 0 0.224-0.072 0.271-0.203l0.498-1.43c0.041-0.116 0.097-0.271 0.116-0.387 0.099-0.034 0.224-0.096 0.283-0.134 0.010-0.003 0.015-0.006 0.025-0.006s0.015 0 0.022 0.010c0.009 0.025 0.018 0.053 0.028 0.078l0.574 1.63c0.037 0.109 0.074 0.224 0.114 0.318 0.038 0.087 0.103 0.124 0.207 0.124h0.019v0.094c-0.14-0.007-0.281-0.012-0.43-0.012-0.153 0-0.309 0.005-0.468 0.012v-0.094h0.034c0.071 0 0.194-0.012 0.194-0.090 0-0.040-0.028-0.124-0.063-0.225l-0.121-0.361h-0.707l-0.1 0.324zM25.604 23.725h-0.006l-0.29 0.882h0.582l-0.286-0.882z"></path>
<path fill="#fff" d="M26.808 25.564c-0.14-0.006-0.28-0.013-0.429-0.013-0.153 0-0.308 0.007-0.467 0.013l-0.014 0.001v-0.122h0.048c0.072 0 0.179-0.016 0.18-0.076 0.001-0.035-0.027-0.121-0.062-0.22l-0.119-0.352h-0.687l-0.097 0.315c-0.031 0.106-0.069 0.188-0.069 0.239 0.001 0.076 0.117 0.095 0.221 0.095h0.048v0.122l-0.014-0.001c-0.125-0.006-0.252-0.013-0.376-0.013-0.111 0-0.224 0.007-0.335 0.013l-0.015 0.001v-0.122h0.032c0.116-0 0.213-0.066 0.258-0.193l0.499-1.43c0.040-0.115 0.097-0.27 0.124-0.395 0.098-0.033 0.223-0.096 0.283-0.134 0.009-0.003 0.017-0.007 0.030-0.007 0.008-0 0.024 0.002 0.035 0.018 0.009 0.026 0.019 0.054 0.028 0.079l0.574 1.63c0.037 0.109 0.074 0.224 0.115 0.317 0.036 0.083 0.093 0.116 0.193 0.116h0.032v0.122l-0.014-0.001zM25.925 25.536c0.154-0.005 0.305-0.011 0.454-0.011 0.144 0 0.28 0.006 0.416 0.011v-0.065h-0.005c-0.107 0.001-0.18-0.041-0.219-0.133-0.041-0.094-0.078-0.21-0.115-0.319l-0.574-1.63c-0.009-0.025-0.018-0.053-0.026-0.075-0.003-0.003-0.002-0.003-0.005-0.003h-0.006c-0.006 0-0.010 0.002-0.018 0.004-0.060 0.039-0.185 0.1-0.277 0.125-0.019 0.118-0.075 0.274-0.116 0.389l-0.498 1.43c-0.047 0.135-0.157 0.212-0.283 0.212h-0.005v0.065c0.107-0.005 0.215-0.011 0.323-0.011 0.121 0 0.243 0.006 0.363 0.011v-0.065h-0.020c-0.102-0.001-0.244-0.012-0.247-0.123 0-0.062 0.038-0.142 0.069-0.247v-0l0.103-0.333h0.726l0.125 0.37c0.035 0.1 0.063 0.183 0.063 0.229-0.005 0.095-0.136 0.102-0.206 0.104h-0.021v0.065zM25.289 24.62l0.298-0.909h0.017v0h0.009l0.296 0.909h-0.62zM25.326 24.593h0.545l-0.271-0.835-0.274 0.835zM25.59 23.729v0z"></path>
<path fill="#fff" d="M26.946 23.531c-0.234 0-0.243 0.056-0.29 0.284h-0.094c0.012-0.087 0.028-0.174 0.038-0.265 0.012-0.088 0.018-0.175 0.018-0.265h0.075c0.024 0.094 0.102 0.090 0.187 0.090h1.608c0.084 0 0.162-0.003 0.168-0.097l0.075 0.013c-0.012 0.084-0.024 0.168-0.034 0.252-0.007 0.084-0.007 0.168-0.007 0.252l-0.093 0.035c-0.006-0.115-0.021-0.299-0.23-0.299h-0.511v1.658c0 0.24 0.109 0.268 0.259 0.268h0.060v0.094c-0.122 0-0.339-0.012-0.508-0.012-0.187 0-0.405 0.012-0.527 0.012v-0.094h0.059c0.172 0 0.259-0.015 0.259-0.261v-1.664h-0.511z"></path>
<path fill="#fff" d="M28.174 25.564c-0.122 0-0.341-0.012-0.508-0.012-0.186 0-0.404 0.012-0.526 0.012h-0.014v-0.12h0.073c0.172-0.004 0.241-0.006 0.245-0.248l-0-1.651h-0.497v-0.027h0.524v1.678c0 0.25-0.101 0.275-0.272 0.275h-0.046v0.066c0.123-0.001 0.332-0.012 0.513-0.012 0.163 0 0.371 0.011 0.494 0.012v-0.066h-0.046c-0.15-0.001-0.271-0.037-0.272-0.282v-1.671h0.524c0.209 0.001 0.237 0.178 0.243 0.294l0.068-0.025c0-0.081 0-0.163 0.007-0.244 0.008-0.080 0.020-0.16 0.032-0.24l-0.047-0.008c-0.014 0.091-0.102 0.096-0.18 0.094h-1.624c-0.073 0.001-0.153-0.003-0.181-0.091h-0.051c-0.001 0.086-0.007 0.17-0.019 0.253-0.009 0.086-0.023 0.168-0.035 0.25h0.067c0.041-0.217 0.068-0.288 0.301-0.284v0.027c-0.231 0.004-0.226 0.043-0.277 0.273l-0.002 0.011h-0.12l0.002-0.015c0.013-0.088 0.028-0.175 0.038-0.265 0.013-0.087 0.019-0.174 0.019-0.263v-0.014h0.099l0.003 0.010c0.022 0.079 0.079 0.079 0.158 0.081h1.624c0.086-0.001 0.149-0.003 0.155-0.084l0-0.015 0.015 0.003 0.088 0.014-0.002 0.014c-0.013 0.084-0.025 0.167-0.034 0.251-0.006 0.084-0.006 0.167-0.006 0.251v0.009l-0.009 0.004-0.11 0.040-0-0.018c-0.008-0.117-0.021-0.287-0.217-0.287h-0.497v1.644c0.003 0.235 0.096 0.251 0.245 0.254h0.073v0.12h-0.013z"></path>
<path fill="#fff" d="M28.846 25.457h0.044c0.112 0 0.23-0.015 0.23-0.177v-1.632c0-0.162-0.118-0.178-0.23-0.178h-0.044v-0.094c0.122 0 0.308 0.012 0.461 0.012 0.156 0 0.343-0.012 0.49-0.012v0.094h-0.044c-0.113 0-0.231 0.015-0.231 0.178v1.632c0 0.162 0.118 0.177 0.231 0.177h0.044v0.094c-0.15 0-0.337-0.012-0.492-0.012-0.153 0-0.337 0.012-0.458 0.012v-0.094z"></path>
<path fill="#fff" d="M29.797 25.564c-0.151 0-0.337-0.013-0.492-0.013-0.152 0-0.336 0.013-0.458 0.013h-0.013v-0.12h0.057c0.112-0.002 0.216-0.012 0.217-0.164v-1.632c-0.001-0.152-0.104-0.162-0.217-0.164h-0.057v-0.121h0.013c0.122 0 0.309 0.012 0.461 0.012 0.155 0 0.342-0.012 0.49-0.012h0.013v0.121h-0.057c-0.114 0.002-0.217 0.012-0.218 0.164v1.632c0.001 0.152 0.104 0.162 0.218 0.164h0.057v0.12h-0.013zM29.783 25.537v-0.066h-0.029c-0.112 0-0.244-0.020-0.244-0.192v-1.632c0-0.172 0.132-0.192 0.244-0.192h0.029v-0.066c-0.144 0.001-0.324 0.012-0.476 0.012-0.148 0-0.326-0.011-0.447-0.012v0.066h0.030c0.111 0 0.243 0.019 0.244 0.192v1.632c-0 0.172-0.133 0.192-0.244 0.192h-0.030v0.066c0.12-0.001 0.296-0.012 0.445-0.012 0.151 0 0.331 0.011 0.478 0.012v0z"></path>
<path fill="#fff" d="M31.039 23.329c0.664 0 1.194 0.412 1.194 1.075 0 0.717-0.514 1.193-1.178 1.193-0.661 0-1.165-0.449-1.165-1.119 0-0.648 0.501-1.15 1.149-1.15zM31.086 25.46c0.605 0 0.71-0.533 0.71-0.987 0-0.455-0.246-1.007-0.763-1.007-0.545 0-0.707 0.486-0.707 0.903 0 0.558 0.256 1.091 0.76 1.091z"></path>
<path fill="#fff" d="M29.876 24.479c0.001-0.655 0.509-1.162 1.163-1.163v0.027c-0.64 0-1.136 0.495-1.137 1.136 0.001 0.662 0.498 1.104 1.153 1.105 0.657-0 1.163-0.47 1.164-1.179-0.001-0.655-0.522-1.061-1.181-1.061v-0.027c0.669 0.001 1.206 0.416 1.207 1.088-0.001 0.724-0.521 1.205-1.191 1.207-0.666-0.001-1.178-0.454-1.179-1.132zM30.312 24.369c0.001-0.419 0.165-0.917 0.721-0.917 0.529 0.001 0.776 0.563 0.777 1.020-0.001 0.454-0.108 1-0.724 1v-0.026c0.592-0 0.695-0.52 0.696-0.974 0-0.451-0.243-0.992-0.749-0.993-0.534 0.001-0.692 0.475-0.694 0.89 0 0.555 0.254 1.076 0.747 1.077v0.026c-0.517-0-0.773-0.543-0.774-1.104z"></path>
<path fill="#fff" d="M34.332 24.936l0.007-0.006v-1.168c0-0.256-0.178-0.293-0.272-0.293h-0.068v-0.094c0.146 0 0.29 0.012 0.436 0.012 0.128 0 0.256-0.012 0.384-0.012v0.094h-0.047c-0.131 0-0.278 0.025-0.278 0.396v1.418c0 0.109 0.003 0.218 0.019 0.315h-0.119l-1.605-1.789v1.284c0 0.271 0.053 0.364 0.293 0.364h0.053v0.094c-0.134 0-0.268-0.012-0.402-0.012-0.14 0-0.284 0.012-0.424 0.012v-0.094h0.044c0.215 0 0.28-0.146 0.28-0.395v-1.313c0-0.174-0.143-0.28-0.284-0.28h-0.040v-0.094c0.118 0 0.24 0.012 0.358 0.012 0.093 0 0.183-0.012 0.277-0.012l1.387 1.561z"></path>
<path fill="#fff" d="M34.513 25.61l-0.129-0.004-1.581-1.762v1.249c0.004 0.271 0.045 0.348 0.279 0.35h0.067v0.121h-0.013c-0.135 0-0.269-0.012-0.402-0.012-0.14 0-0.283 0.012-0.424 0.012h-0.013v-0.121h0.057c0.205-0.001 0.265-0.133 0.267-0.381v-1.313c-0-0.166-0.136-0.266-0.27-0.266h-0.054v-0.121h0.013c0.119 0 0.241 0.012 0.359 0.012 0.092 0 0.182-0.012 0.288-0.007l1.369 1.541v-1.146c-0.001-0.247-0.167-0.277-0.258-0.279h-0.082v-0.121h0.014c0.146 0 0.29 0.012 0.435 0.012 0.127 0 0.255-0.012 0.384-0.012h0.013v0.121h-0.060c-0.128 0.003-0.261 0.015-0.264 0.382v1.418c0 0.109 0.002 0.218 0.018 0.313l0.003 0.015h-0.015zM34.395 25.583h0.102c-0.013-0.094-0.016-0.197-0.016-0.301v-1.418c0-0.375 0.157-0.409 0.291-0.409h0.034v-0.066c-0.124 0.001-0.246 0.012-0.371 0.012-0.142 0-0.281-0.011-0.422-0.012v0.066h0.055c0.096 0.001 0.284 0.043 0.284 0.307l-0.003 1.178-0.006 0.006-0.010 0.010-1.387-1.567c-0.092 0-0.183 0.012-0.277 0.012-0.115 0-0.232-0.011-0.345-0.012v0.066h0.027c0.146 0.001 0.297 0.111 0.297 0.294v1.313c0 0.249-0.070 0.409-0.294 0.409l-0.031-0v0.066c0.135-0.001 0.274-0.012 0.411-0.012 0.13 0 0.259 0.011 0.388 0.012v-0.066h-0.040c-0.244-0-0.306-0.107-0.306-0.379v-1.319l1.618 1.81zM34.332 24.936v0zM34.325 24.93v-0.001l-0.002-0.002 0.002 0.003z"></path>
<path fill="#fff" d="M35.319 25.105c-0.031 0.106-0.068 0.187-0.068 0.243 0 0.094 0.131 0.109 0.233 0.109h0.035v0.094c-0.125-0.007-0.253-0.012-0.377-0.012-0.112 0-0.224 0.005-0.336 0.012v-0.094h0.018c0.122 0 0.225-0.072 0.271-0.203l0.5-1.43c0.040-0.116 0.097-0.271 0.114-0.387 0.1-0.034 0.224-0.096 0.284-0.134 0.009-0.003 0.015-0.006 0.025-0.006s0.015 0 0.021 0.010c0.009 0.025 0.019 0.053 0.028 0.078l0.573 1.63c0.037 0.109 0.075 0.224 0.115 0.318 0.037 0.087 0.103 0.124 0.205 0.124h0.019v0.094c-0.14-0.007-0.281-0.012-0.43-0.012-0.152 0-0.308 0.005-0.468 0.012v-0.094h0.035c0.071 0 0.193-0.012 0.193-0.090 0-0.040-0.028-0.124-0.063-0.225l-0.121-0.361h-0.707l-0.1 0.324zM35.775 23.725h-0.006l-0.29 0.882h0.584l-0.287-0.882z"></path>
<path fill="#fff" d="M36.979 25.564c-0.14-0.006-0.28-0.012-0.429-0.012-0.152 0-0.308 0.007-0.467 0.012l-0.014 0.001v-0.121h0.047c0.072 0 0.18-0.017 0.18-0.077 0.001-0.035-0.027-0.121-0.062-0.22l-0.118-0.352h-0.688l-0.096 0.315c-0.031 0.107-0.068 0.188-0.068 0.239 0 0.076 0.117 0.096 0.22 0.096h0.048v0.121l-0.014-0.001c-0.124-0.006-0.252-0.012-0.376-0.012-0.112 0-0.224 0.007-0.336 0.012l-0.014 0.001v-0.121h0.031c0.116-0.001 0.213-0.067 0.259-0.194l0.498-1.43c0.040-0.115 0.096-0.27 0.124-0.394 0.098-0.034 0.223-0.096 0.284-0.134 0.008-0.003 0.017-0.007 0.029-0.007 0.008-0.001 0.024 0.001 0.034 0.018 0.009 0.025 0.019 0.053 0.029 0.078l0.573 1.63c0.038 0.109 0.075 0.224 0.115 0.317 0.037 0.082 0.093 0.115 0.193 0.116h0.032v0.121l-0.014-0.001zM36.096 25.536c0.154-0.006 0.306-0.012 0.454-0.012 0.145 0 0.28 0.006 0.416 0.011l-0-0.065h-0.005c-0.106 0-0.179-0.041-0.218-0.133-0.041-0.094-0.078-0.21-0.115-0.319l-0.573-1.63c-0.009-0.025-0.019-0.053-0.026-0.074-0.003-0.004-0.002-0.004-0.004-0.004h-0.006c-0.007 0-0.010 0.002-0.018 0.004-0.061 0.038-0.186 0.101-0.278 0.124-0.019 0.118-0.076 0.273-0.116 0.389l-0.499 1.43c-0.047 0.135-0.156 0.212-0.284 0.212h-0.005v0.065c0.107-0.005 0.214-0.011 0.323-0.011 0.121 0 0.244 0.006 0.364 0.011v-0.065h-0.021c-0.101-0.001-0.243-0.012-0.247-0.123 0.001-0.062 0.039-0.141 0.070-0.247v-0l0.102-0.333h0.726l0.125 0.37c0.034 0.1 0.063 0.183 0.063 0.229-0.004 0.095-0.136 0.102-0.206 0.104h-0.021v0.065zM35.459 24.62l0.299-0.909h0.016v0h0.009l0.295 0.909h-0.619zM35.497 24.593h0.545l-0.271-0.834-0.274 0.834zM35.762 23.729v0z"></path>
<path fill="#fff" d="M37.765 25.245c0 0.125 0.087 0.162 0.187 0.175 0.127 0.009 0.268 0.009 0.412-0.007 0.131-0.016 0.243-0.090 0.299-0.169 0.050-0.068 0.078-0.156 0.097-0.224h0.090c-0.034 0.178-0.078 0.352-0.115 0.53-0.274 0-0.549-0.012-0.822-0.012s-0.548 0.012-0.822 0.012v-0.094h0.043c0.112 0 0.234-0.015 0.234-0.209v-1.601c0-0.162-0.122-0.178-0.234-0.178h-0.043v-0.094c0.165 0 0.327 0.012 0.492 0.012 0.159 0 0.315-0.012 0.474-0.012v0.094h-0.078c-0.118 0-0.211 0.003-0.211 0.168v1.607z"></path>
<path fill="#fff" d="M38.734 25.564c-0.275 0-0.549-0.012-0.822-0.012s-0.548 0.012-0.823 0.012h-0.013v-0.12h0.057c0.113-0.003 0.22-0.011 0.221-0.195v-1.602c-0.001-0.152-0.108-0.162-0.221-0.164h-0.057v-0.121h0.013c0.166 0 0.328 0.012 0.492 0.012 0.159 0 0.314-0.012 0.474-0.012h0.013v0.121h-0.091c-0.121 0.003-0.196-0.002-0.199 0.155v1.607c0.001 0.117 0.077 0.148 0.175 0.162 0.055 0.004 0.113 0.006 0.173 0.006 0.076 0 0.155-0.004 0.236-0.012 0.127-0.015 0.236-0.088 0.29-0.163 0.048-0.067 0.075-0.152 0.094-0.22l0.003-0.010h0.117l-0.003 0.016c-0.035 0.178-0.078 0.352-0.116 0.53l-0.002 0.011h-0.010zM38.722 25.537c0.036-0.169 0.077-0.335 0.111-0.503h-0.064c-0.019 0.068-0.047 0.151-0.096 0.219-0.058 0.081-0.174 0.157-0.309 0.174-0.081 0.008-0.163 0.012-0.239 0.012-0.060 0-0.119-0.003-0.175-0.007-0.101-0.011-0.199-0.055-0.199-0.188v-1.607c0-0.173 0.11-0.182 0.226-0.182h0.064v-0.066c-0.153 0.001-0.305 0.013-0.46 0.013-0.161 0-0.319-0.012-0.478-0.013v0.066h0.030c0.111 0 0.247 0.019 0.247 0.191v1.602c0 0.202-0.135 0.223-0.247 0.223h-0.030v0.066c0.269-0.001 0.538-0.012 0.809-0.012s0.541 0.012 0.811 0.012v0z"></path>
<path fill="#fff" d="M38.811 23.287c0.188 0 0.328 0.144 0.328 0.329s-0.14 0.327-0.328 0.327c-0.188 0-0.328-0.143-0.328-0.327s0.14-0.329 0.328-0.329v0zM38.811 23.882c0.147 0 0.26-0.125 0.26-0.266s-0.111-0.267-0.26-0.267c-0.148 0-0.26 0.126-0.26 0.267s0.112 0.266 0.26 0.266v0zM38.648 23.789v-0.016c0.040-0.006 0.048-0.005 0.048-0.029v-0.243c0-0.034-0.003-0.046-0.046-0.044v-0.017h0.168c0.058 0 0.111 0.028 0.111 0.087 0 0.049-0.032 0.085-0.078 0.099l0.054 0.075c0.025 0.034 0.054 0.066 0.072 0.077v0.010h-0.064c-0.031 0-0.058-0.064-0.118-0.151h-0.036v0.109c0 0.021 0.008 0.020 0.048 0.026v0.016h-0.158zM38.758 23.616h0.039c0.042 0 0.062-0.032 0.062-0.084s-0.030-0.071-0.064-0.071h-0.037v0.154z"></path>
<path fill="#0069aa" d="M19.351 12.376c0-2.914 2.362-5.277 5.277-5.277s5.277 2.362 5.277 5.277-2.362 5.277-5.277 5.277c-2.914 0-5.277-2.363-5.277-5.277z"></path>
<path fill="#fff" d="M27.819 12.272c-0.002-1.351-0.847-2.504-2.037-2.96v5.92c1.19-0.457 2.035-1.608 2.037-2.96v0zM23.511 15.231v-5.918c-1.189 0.458-2.032 1.609-2.036 2.96 0.003 1.351 0.847 2.501 2.036 2.959v0zM24.647 7.268c-2.763 0.001-5.002 2.24-5.003 5.004s2.239 5.002 5.003 5.003c2.763-0 5.003-2.239 5.003-5.003-0.001-2.763-2.24-5.003-5.003-5.004v0zM24.635 17.747c-3.024 0.014-5.513-2.435-5.513-5.418 0-3.259 2.489-5.514 5.513-5.513h1.417c2.988-0.001 5.715 2.253 5.715 5.513 0 2.981-2.727 5.418-5.715 5.418h-1.417z"></path>
</svg>
<svg id="card-mastercard" width="51" height="32" viewBox="0 0 51 32" x="192" y="0">
<path fill="#000" d="M5.973 3.413h39.253c0.943 0 1.707 0.764 1.707 1.707v22.187c0 0.943-0.764 1.707-1.707 1.707h-39.253c-0.943 0-1.707-0.764-1.707-1.707v-22.187c0-0.943 0.764-1.707 1.707-1.707z"></path>
<path fill="#fff" d="M17.738 25.913v-1.285c0.018-0.216-0.058-0.43-0.21-0.585s-0.363-0.237-0.58-0.225c-0.289-0.018-0.565 0.121-0.721 0.364-0.143-0.236-0.403-0.376-0.679-0.364-0.244-0.014-0.479 0.099-0.618 0.3v-0.251h-0.423v2.050h0.417v-1.178c-0.015-0.144 0.033-0.287 0.134-0.392s0.241-0.16 0.386-0.152c0.296 0 0.464 0.193 0.464 0.54v1.181h0.417v-1.176c-0.015-0.144 0.034-0.287 0.134-0.391s0.241-0.16 0.385-0.153c0.305 0 0.468 0.193 0.468 0.54v1.181l0.427-0.002zM24.429 23.867h-0.747v-0.621h-0.419v0.621h-0.429v0.373h0.429v0.971c0 0.476 0.168 0.758 0.696 0.758 0.197 0.001 0.391-0.054 0.558-0.159l-0.129-0.364c-0.12 0.071-0.256 0.111-0.395 0.116-0.215 0-0.314-0.137-0.314-0.343v-0.983h0.747l0.002-0.369zM28.243 23.816c-0.226-0.005-0.438 0.109-0.558 0.3v-0.249h-0.408v2.050h0.412v-1.157c0-0.339 0.163-0.557 0.455-0.557 0.096-0.001 0.19 0.016 0.279 0.051l0.137-0.388c-0.102-0.036-0.209-0.055-0.318-0.056v0.004zM22.477 24.030c-0.253-0.15-0.544-0.224-0.837-0.214-0.52 0-0.837 0.244-0.837 0.643 0 0.334 0.232 0.536 0.691 0.6l0.215 0.030c0.245 0.034 0.378 0.12 0.378 0.236 0 0.159-0.18 0.261-0.485 0.261-0.245 0.009-0.486-0.067-0.683-0.214l-0.215 0.321c0.262 0.178 0.572 0.271 0.889 0.266 0.593 0 0.921-0.274 0.921-0.664s-0.251-0.538-0.696-0.602l-0.215-0.030c-0.193-0.026-0.365-0.086-0.365-0.214s0.163-0.253 0.408-0.253c0.226 0.003 0.448 0.063 0.644 0.176l0.187-0.341zM28.704 24.887c-0.014 0.288 0.094 0.569 0.299 0.773s0.486 0.312 0.775 0.298c0.268 0.014 0.532-0.074 0.739-0.244l-0.215-0.321c-0.154 0.117-0.343 0.182-0.537 0.184-0.359-0.034-0.633-0.335-0.633-0.695s0.274-0.661 0.633-0.695c0.194 0.002 0.382 0.067 0.537 0.184l0.215-0.321c-0.207-0.171-0.471-0.258-0.739-0.244-0.289-0.014-0.57 0.094-0.775 0.298s-0.313 0.485-0.299 0.773v0.011zM25.814 23.816c-0.601 0-1.016 0.428-1.016 1.071-0.018 0.284 0.086 0.563 0.285 0.767s0.476 0.315 0.761 0.304c0.306 0.011 0.606-0.092 0.842-0.287l-0.215-0.304c-0.17 0.136-0.38 0.211-0.597 0.214-0.312 0.011-0.581-0.216-0.621-0.525h1.535c0-0.056 0-0.111 0-0.171 0-0.643-0.391-1.071-0.968-1.071l-0.006 0.002zM25.814 24.197c0.141-0.005 0.278 0.048 0.38 0.145s0.16 0.232 0.161 0.373h-1.102c0.016-0.298 0.268-0.528 0.567-0.518h-0.006zM20.251 24.889v-1.022h-0.412v0.249c-0.162-0.199-0.409-0.311-0.666-0.3-0.596 0-1.079 0.482-1.079 1.077s0.483 1.077 1.079 1.077c0.257 0.011 0.504-0.101 0.666-0.3v0.249h0.412v-1.028zM18.586 24.889c-0.014-0.179 0.047-0.356 0.169-0.488s0.295-0.207 0.475-0.206c0.359 0.034 0.633 0.335 0.633 0.695s-0.274 0.661-0.633 0.695c-0.18 0.001-0.352-0.074-0.475-0.206s-0.184-0.309-0.169-0.488v-0.002zM34.453 23.818c-0.226-0.005-0.438 0.109-0.558 0.3v-0.251h-0.408v2.050h0.412v-1.157c0-0.339 0.163-0.557 0.455-0.557 0.096-0.001 0.19 0.016 0.279 0.051l0.137-0.386c-0.102-0.036-0.209-0.055-0.318-0.056v0.004zM37.764 25.622c0.028-0 0.056 0.005 0.082 0.015 0.025 0.010 0.047 0.025 0.067 0.043s0.034 0.040 0.045 0.064c0.022 0.051 0.022 0.108 0 0.159-0.011 0.024-0.026 0.046-0.045 0.064s-0.042 0.033-0.067 0.043c-0.026 0.011-0.053 0.017-0.082 0.017-0.083-0.001-0.158-0.049-0.193-0.124-0.022-0.051-0.022-0.108 0-0.159 0.011-0.024 0.026-0.046 0.045-0.064s0.042-0.033 0.067-0.043c0.026-0.012 0.053-0.020 0.082-0.021v0.006zM37.764 25.984c0.021 0 0.043-0.004 0.062-0.013 0.018-0.008 0.035-0.020 0.049-0.034 0.056-0.061 0.056-0.154 0-0.214-0.014-0.014-0.031-0.026-0.049-0.034-0.020-0.009-0.041-0.013-0.062-0.013s-0.043 0.004-0.062 0.013c-0.019 0.008-0.037 0.020-0.052 0.034-0.056 0.061-0.056 0.154 0 0.214 0.015 0.015 0.032 0.026 0.052 0.034 0.020 0.007 0.041 0.010 0.062 0.009v0.004zM37.776 25.729c0.020-0.001 0.040 0.005 0.056 0.017 0.013 0.011 0.021 0.028 0.019 0.045 0.001 0.014-0.005 0.028-0.015 0.039-0.012 0.011-0.028 0.018-0.045 0.019l0.062 0.071h-0.049l-0.058-0.071h-0.019v0.071h-0.041v-0.189l0.090-0.002zM37.729 25.765v0.051h0.047c0.008 0.003 0.017 0.003 0.026 0 0.003-0.006 0.003-0.013 0-0.019 0.003-0.006 0.003-0.013 0-0.019-0.008-0.002-0.017-0.002-0.026 0l-0.047-0.013zM32.87 24.893v-1.026h-0.412v0.249c-0.162-0.199-0.409-0.311-0.666-0.3-0.596 0-1.079 0.482-1.079 1.077s0.483 1.077 1.079 1.077c0.257 0.011 0.504-0.101 0.666-0.3v0.249h0.412v-1.024zM31.206 24.893c-0.014-0.179 0.047-0.356 0.169-0.488s0.295-0.207 0.475-0.206c0.359 0.034 0.633 0.335 0.633 0.695s-0.274 0.661-0.633 0.695c-0.18 0.001-0.352-0.074-0.475-0.206s-0.184-0.309-0.169-0.488v-0.002zM37.019 24.893v-1.853h-0.412v1.071c-0.162-0.199-0.409-0.311-0.666-0.3-0.596 0-1.079 0.482-1.079 1.077s0.483 1.077 1.079 1.077c0.257 0.011 0.504-0.101 0.666-0.3v0.249h0.412v-1.020zM35.354 24.893c-0.014-0.179 0.047-0.356 0.169-0.488s0.295-0.207 0.475-0.206c0.343 0.053 0.596 0.348 0.593 0.695s-0.258 0.639-0.602 0.687c-0.18 0.001-0.352-0.074-0.474-0.205s-0.184-0.308-0.17-0.487l0.009 0.004z"></path>
<path fill="#ff5f00" d="M22.487 8.587h6.72v12.242h-6.72v-12.242z"></path>
<path fill="#eb001b" d="M22.914 14.709c-0.002-2.389 1.080-4.645 2.933-6.12-3.149-2.509-7.671-2.143-10.388 0.839s-2.717 7.581 0 10.563c2.717 2.983 7.239 3.348 10.388 0.839-1.854-1.475-2.936-3.733-2.933-6.122z"></path>
<path fill="#f79e1b" d="M37.547 19.534v-0.251h0.1v-0.052h-0.254v0.052h0.1v0.251h0.053zM38.039 19.534v-0.303h-0.077l-0.090 0.216-0.090-0.216h-0.077v0.303h0.053v-0.229l0.083 0.197h0.058l0.083-0.197v0.229h0.055z"></path>
<path fill="#f79e1b" d="M38.274 14.709c-0 2.981-1.679 5.7-4.324 7.002s-5.791 0.96-8.103-0.882c1.853-1.476 2.934-3.732 2.934-6.121s-1.082-4.645-2.934-6.121c2.312-1.842 5.458-2.185 8.103-0.882s4.324 4.022 4.324 7.002v0.002z"></path>
</svg>
<svg id="card-visa" width="51" height="32" viewBox="0 0 51 32" x="288" y="0">
<path fill="#26337a" d="M5.973 3.413h39.253c0.943 0 1.707 0.764 1.707 1.707v22.187c0 0.943-0.764 1.707-1.707 1.707h-39.253c-0.943 0-1.707-0.764-1.707-1.707v-22.187c0-0.943 0.764-1.707 1.707-1.707z"></path>
<path fill="#fffffe" d="M21.969 20.287l1.312-8.138h2.097l-1.312 8.138h-2.097z"></path>
<path fill="#fffffe" d="M31.673 12.348c-0.415-0.163-1.067-0.341-1.879-0.341-2.073 0-3.533 1.104-3.545 2.686-0.013 1.17 1.041 1.822 1.837 2.211 0.817 0.399 1.092 0.654 1.088 1.010-0.006 0.545-0.652 0.795-1.255 0.795-0.84 0-1.286-0.123-1.975-0.427l-0.27-0.13-0.293 1.822c0.489 0.227 1.395 0.423 2.336 0.434 2.203 0 3.635-1.091 3.652-2.78 0.008-0.928-0.551-1.631-1.761-2.211-0.733-0.377-1.183-0.627-1.177-1.009 0-0.338 0.38-0.7 1.201-0.7 0.686-0.011 1.182 0.147 1.569 0.313l0.188 0.093 0.284-1.764z"></path>
<path fill="#fffffe" d="M34.465 17.401c0.174-0.468 0.835-2.275 0.835-2.275-0.012 0.021 0.173-0.471 0.279-0.776l0.142 0.702c0 0 0.402 1.942 0.485 2.349h-1.741zM37.052 12.157h-1.621c-0.503 0-0.879 0.144-1.099 0.675l-3.114 7.458h2.203c0 0 0.359-1.003 0.441-1.224 0.24 0 2.38 0.004 2.686 0.004 0.063 0.284 0.255 1.219 0.255 1.219h1.946l-1.697-8.133z"></path>
<path fill="#fffffe" d="M20.21 12.155l-2.052 5.548-0.22-1.128c-0.382-1.299-1.573-2.708-2.905-3.414l1.878 7.118 2.219-0.001 3.302-8.123h-2.222z"></path>
<path fill="#ec982d" d="M16.252 12.15h-3.382l-0.028 0.169c2.631 0.674 4.372 2.301 5.095 4.257l-0.735-3.739c-0.127-0.516-0.495-0.669-0.951-0.687z"></path>
</svg>
</svg>
